{
	"asset":{
		"generator":"Khronos glTF Blender I/O v5.2.39",
		"version":"2.0"
	},
	"scene":0,
	"scenes":[
		{
			"name":"Scene",
			"nodes":[
				0,
				1,
				2
			]
		}
	],
	"nodes":[
		{
			"mesh":0,
			"name":"Handvat"
		},
		{
			"mesh":1,
			"name":"PickaxeHoofd"
		},
		{
			"mesh":2,
			"name":"Steel"
		}
	],
	"materials":[
		{
			"doubleSided":true,
			"name":"0.447059_0.243137_0.000000_0.000000_0.000000",
			"pbrMetallicRoughness":{
				"baseColorFactor":[
					0.4470588266849518,
					0.24313725531101227,
					0,
					1
				],
				"metallicFactor":0
			}
		},
		{
			"doubleSided":true,
			"name":"0.901961_0.878431_0.811765_0.000000_0.000000",
			"pbrMetallicRoughness":{
				"baseColorFactor":[
					0.9019607901573181,
					0.8784313797950745,
					0.8117647171020508,
					1
				],
				"metallicFactor":0
			}
		},
		{
			"doubleSided":true,
			"name":"0.529412_0.568627_0.600000_0.000000_0.000000",
			"pbrMetallicRoughness":{
				"baseColorFactor":[
					0.529411792755127,
					0.5686274766921997,
					0.6000000238418579,
					1
				],
				"metallicFactor":0
			}
		}
	],
	"meshes":[
		{
			"name":"mesh0_mesh",
			"primitives":[
				{
					"attributes":{
						"POSITION":0,
						"NORMAL":1,
						"TEXCOORD_0":2
					},
					"indices":3,
					"material":0
				}
			]
		},
		{
			"name":"mesh8_mesh",
			"primitives":[
				{
					"attributes":{
						"POSITION":4,
						"NORMAL":5,
						"TEXCOORD_0":6
					},
					"indices":7,
					"material":1
				}
			]
		},
		{
			"name":"mesh4_mesh",
			"primitives":[
				{
					"attributes":{
						"POSITION":8,
						"NORMAL":9,
						"TEXCOORD_0":10
					},
					"indices":11,
					"material":2
				}
			]
		}
	],
	"accessors":[
		{
			"bufferView":0,
			"componentType":5126,
			"count":580,
			"max":[
				0.04500000178813934,
				0.029999999329447746,
				0.30000001192092896
			],
			"min":[
				-0.04500000178813934,
				-0.029999999329447746,
				0
			],
			"type":"VEC3"
		},
		{
			"bufferView":1,
			"componentType":5126,
			"count":580,
			"type":"VEC3"
		},
		{
			"bufferView":2,
			"componentType":5126,
			"count":580,
			"type":"VEC2"
		},
		{
			"bufferView":3,
			"componentType":5123,
			"count":1716,
			"type":"SCALAR"
		},
		{
			"bufferView":4,
			"componentType":5126,
			"count":1915,
			"max":[
				0.7224364876747131,
				0.12476573139429092,
				0.9619726538658142
			],
			"min":[
				-0.5068722367286682,
				-0.12476573139429092,
				0.6753334999084473
			],
			"type":"VEC3"
		},
		{
			"bufferView":5,
			"componentType":5126,
			"count":1915,
			"type":"VEC3"
		},
		{
			"bufferView":6,
			"componentType":5126,
			"count":1915,
			"type":"VEC2"
		},
		{
			"bufferView":7,
			"componentType":5123,
			"count":5406,
			"type":"SCALAR"
		},
		{
			"bufferView":8,
			"componentType":5126,
			"count":580,
			"max":[
				0.04399999976158142,
				0.028999999165534973,
				0.8999999761581421
			],
			"min":[
				-0.04399999976158142,
				-0.028999999165534973,
				0.30000001192092896
			],
			"type":"VEC3"
		},
		{
			"bufferView":9,
			"componentType":5126,
			"count":580,
			"type":"VEC3"
		},
		{
			"bufferView":10,
			"componentType":5126,
			"count":580,
			"type":"VEC2"
		},
		{
			"bufferView":11,
			"componentType":5123,
			"count":1716,
			"type":"SCALAR"
		}
	],
	"bufferViews":[
		{
			"buffer":0,
			"byteLength":6960,
			"byteOffset":0,
			"target":34962
		},
		{
			"buffer":0,
			"byteLength":6960,
			"byteOffset":6960,
			"target":34962
		},
		{
			"buffer":0,
			"byteLength":4640,
			"byteOffset":13920,
			"target":34962
		},
		{
			"buffer":0,
			"byteLength":3432,
			"byteOffset":18560,
			"target":34963
		},
		{
			"buffer":0,
			"byteLength":22980,
			"byteOffset":21992,
			"target":34962
		},
		{
			"buffer":0,
			"byteLength":22980,
			"byteOffset":44972,
			"target":34962
		},
		{
			"buffer":0,
			"byteLength":15320,
			"byteOffset":67952,
			"target":34962
		},
		{
			"buffer":0,
			"byteLength":10812,
			"byteOffset":83272,
			"target":34963
		},
		{
			"buffer":0,
			"byteLength":6960,
			"byteOffset":94084,
			"target":34962
		},
		{
			"buffer":0,
			"byteLength":6960,
			"byteOffset":101044,
			"target":34962
		},
		{
			"buffer":0,
			"byteLength":4640,
			"byteOffset":108004,
			"target":34962
		},
		{
			"buffer":0,
			"byteLength":3432,
			"byteOffset":112644,
			"target":34963
		}
	],
	"buffers":[
		{
			"byteLength":116076,
			"uri":"pickaxe_blender.bin"
		}
	]
}
